<svg xmlns="http://www.w3.org/2000/svg" viewBox="0 0 827 247.87"><defs><style>.cls-1{fill:#fee5a0;}.cls-2{fill:#fed695;}.cls-3{fill:#fee1ab;}.cls-4{fill:#fef1cb;}.cls-5{fill:#fedda1;}.cls-6{fill:#fee2ac;}.cls-7{fill:#fef2d0;}.cls-8{fill:#feecb8;}.cls-9{fill:#fef3d4;}.cls-10{fill:#feebb8;}.cls-11{fill:#b87850;}.cls-12{fill:#a4694b;}.cls-13{fill:#925f4a;}.cls-14{fill:#c88850;}.cls-15{fill:#fee5a1;}</style></defs><title>Recurso 6</title><g id="Capa_2" data-name="Capa 2"><g id="Capa_1-2" data-name="Capa 1"><path d="M282.34,114.68V57.62L299.94,40h46.5L364.22,57.8V71H347v-7.6L338.66,55H307.9l-8.33,8.34v45.57l8.33,8.34h30.76l8.33-8.34v-7.59h17.23v13.15l-17.78,17.79h-46.5Z"/><path d="M382.75,114.49V57.8L400.53,40h49.28l17.6,17.78v56.69l-17.6,17.79H400.53Zm59.1,2.78,8.33-8.15V63.17L441.85,55H408.31L400,63.17v46l8.33,8.15Z"/><path d="M489.64,114.49V57.8L507.43,40h49.28l17.6,17.78v56.69l-17.6,17.79H507.43Zm59.1,2.78,8.34-8.15V63.17L548.74,55H515.21l-8.34,8.15v46l8.34,8.15Z"/><path d="M598.39,0h17.23V76.7h19.82L661.38,40h19.08L649.52,84.48l32.79,47.8H663.23l-28-40.39H615.62v40.39H598.39Z"/><path d="M697.13,19.45V10.19l6.49-6.67h9.82l6.48,6.67v9.26l-6.48,6.67h-9.82ZM699.91,40h17.23v92.26H699.91Z"/><path d="M743.08,114.68V57.8L760.86,40h48.36L827,57.8V91.52H760.31V109.3l8.15,8.16h33.16l8.15-8v-6.3h17.05v11.49l-17.42,17.6H760.68ZM809.77,78V63l-8.34-8.15H768.64L760.31,63V78Z"/><path d="M256.57,235.19v-38.6l11.91-11.9h31.45l12,12v8.9H300.31v-5.14l-5.64-5.64H273.86l-5.63,5.64v30.83l5.63,5.64h20.81l5.64-5.64v-5.14H312v8.9l-12,12H268.48Z"/><path d="M326.37,157.62H338V247.1H326.37Z"/><path d="M355.57,170.78v-6.27L360,160h6.64l4.39,4.51v6.27l-4.39,4.51H360Zm1.88,13.91h11.66V247.1H357.45Z"/><path d="M386.65,235.19v-38.6l11.91-11.9H430l12,12v8.9H430.39v-5.14l-5.64-5.64H404l-5.64,5.64v30.83L404,237h20.8l5.64-5.64v-5.14h11.66v8.9l-12,12H398.56Z"/><path d="M455.83,157.62h11.66V209.5H480.9l17.54-24.81h12.91l-20.93,30.08L512.6,247.1H499.69l-18.92-27.32H467.49V247.1H455.83Z"/><path d="M518.87,235.19V196.72l12-12h32.71l12,12v22.81H530.52v12l5.52,5.51h22.43l5.52-5.38v-4.27h11.52v7.77L563.73,247.1h-33ZM564,210.38V200.23l-5.64-5.51H536.16l-5.64,5.51v10.15Z"/><path d="M591.31,184.69h11.15v10.9l10.78-10.9H629.9v10.15h-14l-12.91,13V247.1H591.31Z"/><path class="cls-1" d="M246.67,133.69v1c-.53,2.27-.37,4.59-.6,6.88-1.75,17.16-7.91,32.78-16.63,47.5a7.17,7.17,0,0,1-2.11,2.59,139.16,139.16,0,0,1-18.84,9.62,129,129,0,0,1-33.73,8.53c-4.25.5-8.5.21-12.73.67a7.19,7.19,0,0,0-4.09,1.75c-5.12,4.38-11,6.9-17.84,6.67-10.22-.34-18-4.92-22.84-13.94-1.22-2.25-2.56-4-5-4.78a3.52,3.52,0,0,1-2.51-2.07,7.9,7.9,0,0,1-.22-2.61c.07-4.46-2.16-7.57-5.86-9.68-3-1.73-6.23-3.21-9.41-4.7a8.22,8.22,0,0,0-6.77,1,5.33,5.33,0,0,1-2.34,1.07c-2.77-.59-4.56-2.69-6.37-4.53-2-2.07-4-2.58-7-2.36-15.43,1.1-24.36-13.67-20.8-25.12.44-1.41,1.8-2.89,1-4.27s-2.63-.89-4-1.31a26.35,26.35,0,0,1-14.71-39.68A18.72,18.72,0,0,1,36.48,102,5.08,5.08,0,0,0,38,97.44C35.93,71.71,40.85,47.49,53.66,25a43,43,0,0,0,2.65-4.29c2.48-2.62,5.77-4,8.84-5.7A115.18,115.18,0,0,1,102.5,2.18a68.48,68.48,0,0,1,11.72-.73h2.72c1-.13,2,.26,3-.25h7.23c.78.5,1.64.13,2.46.25.94-.13,1.93.26,2.84-.25H133c3.86.63,7.8.41,11.66,1a112.59,112.59,0,0,1,14.05,3.24,7.93,7.93,0,0,1,3.89,2.29c4.72,5.24,9.54,10.39,14.22,15.67a10.41,10.41,0,0,1,2.77,6.77c.19,7.13.1,14.27.05,21.4a3.72,3.72,0,0,1-.44,1.85c-1,1-1.66,0-2.08-.61-2.41-3.66-6.09-5.3-10.06-6.5-3.73-.81-6.57.66-8.89,3.45a78.72,78.72,0,0,0-5,6.73,8.46,8.46,0,0,0-.28,9.33c1.39,2.53,2.88,5,4.45,7.42,2.82,4.35,6,5.32,10.93,3.44,2.67-1.78,5.32-3.58,8-5.32.82-.52,1.64-1.41,2.81-.67.82,1.23.55,2.63.58,4,.11,4.42,1.86,6.81,6.07,8.15,1.76.56,3.57,1,5.36,1.42a10.29,10.29,0,0,1,7,5.45c2.18,4.3,4,8.76,5.93,13.17a2.58,2.58,0,0,1,.19,1.87c-.46,1-1.41,1.22-2.35,1.45a23.09,23.09,0,0,1-3.29.66c-5.56.55-9.62,3.59-13.06,7.72s-3.23,8,.39,11.78c2.78,2.88,5.77,5.19,10.13,3.4,5-2,9.62-4.61,14.37-7a7.45,7.45,0,0,1,2.85-1.15c5.17,1.66,10.16.07,15.1-1.07A14.1,14.1,0,0,1,239.11,122c2.53,1.49,5.57,2.11,7.56,4.5v1.93A12.15,12.15,0,0,0,246.67,133.69Z"/><path class="cls-2" d="M110.27,197.67c.75,1.7,2.54,1.83,3.94,2.36a5.11,5.11,0,0,1,3.11,3.07c6.12,14.51,25.4,19.88,38.37,9.77,1-.79,2-1.61,2.93-2.47,1.67-1.51,3.81-1,5.63-1a115.94,115.94,0,0,0,39-7.09,98.83,98.83,0,0,0,20.39-9.59A34.41,34.41,0,0,1,227,191c.65,1.49-.46,2.44-1.14,3.45a119.79,119.79,0,0,1-28.86,30,122.27,122.27,0,0,1-52.41,22.38c-3.85.67-7.79.41-11.66,1h-1.45a5,5,0,0,0-3.37,0H113.22c-3.71-.57-7.49-.31-11.19-1a124.4,124.4,0,0,1-89.21-65.61,120.91,120.91,0,0,1-12-35.95c-.61-3.69-.38-7.47-.87-11.19v-2.41a8.37,8.37,0,0,0,0-4.33v-6.27a12.46,12.46,0,0,0,0-5.3v-1.44c.74-4.73.54-9.53,1.52-14.25a123.66,123.66,0,0,1,27-55.67A127.24,127.24,0,0,1,53.22,22.1c1.05-.72,2-2,3.62-1.21-.47,1.73-1.63,3.09-2.5,4.61A123.53,123.53,0,0,0,41.23,59.43a124.93,124.93,0,0,0-2.51,36c.23,3.65-.33,6-2.94,8.62-6.51,6.48-7.64,19.31-3.29,27.39a26.74,26.74,0,0,0,16.13,13.4c1.64.53,4.15-.17,4.76,1.52.44,1.22-.91,3.07-1.41,4.65a19,19,0,0,0,14.47,24.08c2.55.48,5.09.85,7.58-.07a2.59,2.59,0,0,1,3.16.88,55.2,55.2,0,0,0,8,6.9c.63,1-.26,1.63-.75,2.28-1.4,1.85-3,3.59-4.26,5.52-2.75,4.1-1.72,8.91,2.57,11.37a41.58,41.58,0,0,0,9.6,3.83c2.4.66,4.55-.44,6.69-1.36,1.38-.65,2.81-1.17,4.23-1.72a11.35,11.35,0,0,0,5.37-3.88C109,198.3,109.39,197.62,110.27,197.67Z"/><path class="cls-3" d="M0,115.86a6.37,6.37,0,0,1,0,5.3Z"/><path class="cls-4" d="M246.67,133.69a6.37,6.37,0,0,1,0-5.3Z"/><path class="cls-5" d="M0,127.43a4.42,4.42,0,0,1,0,4.33Z"/><path class="cls-6" d="M128.15,247.87a2.85,2.85,0,0,1,3.37,0Z"/><path class="cls-7" d="M132.49,1.2c-.85.84-1.91.35-2.88.47-.31-.15-.31-.3,0-.47Z"/><path class="cls-8" d="M120,1.2c-.87.8-1.93.38-2.91.46-.17-.11-.23-.21-.16-.31s.12-.15.18-.15Z"/><path class="cls-9" d="M117.07,1.2c0,.16,0,.31,0,.46l-2.91,0c0-.14,0-.28,0-.43Z"/><path class="cls-10" d="M129.6,1.2c0,.16,0,.31,0,.47-.83,0-1.72.25-2.42-.47Z"/><path class="cls-11" d="M154.7,160.11c3.64.51,7.3.88,10.9,1.56a8.22,8.22,0,0,1,6.52,9.86c-1.14,5.06-2.44,10.09-3.73,15.12a6.12,6.12,0,0,1-2.55,3.92c-1.06.62-2,.16-3-.31-4-2-8.08-3.92-12-6-5.64-3-7.16-7.89-4.26-13.57a85,85,0,0,1,5.08-8.44C152.4,161.1,153.24,160.14,154.7,160.11Z"/><path class="cls-11" d="M64.63,109.48c2.2.41,4.44.68,6.61,1.24A8.8,8.8,0,0,1,78,117.26c0,.16.06.32.1.47,2.94,11.6,3.31,10.5-4,19.55-1.81,2.23-3.36,4.69-5.59,6.57-1.67-.76-2.64-2.3-3.9-3.52-2.43-2.34-4.86-4.68-7.14-7.17a9.37,9.37,0,0,1-1.52-11.33c1.78-3.42,3.84-6.68,5.89-9.94A4.55,4.55,0,0,1,64.63,109.48Z"/><path class="cls-11" d="M126.16,106.18a72.17,72.17,0,0,1,7.51-1.36,7.68,7.68,0,0,1,8.07,4.9,25.19,25.19,0,0,1,.17,20.73,4.41,4.41,0,0,1-1.69,2.29,3.24,3.24,0,0,1-2.77.17c-3.88-.95-7.77-1.83-11.61-2.93-6.84-2-9.42-7.78-6.08-14C121.59,112.52,123.34,109,126.16,106.18Z"/><path class="cls-11" d="M178.72,53.65c.65.9,1.29,1.82,1.95,2.71,4.28,5.7,3.72,9.92-1.93,14.32L168.6,77.26A6.47,6.47,0,0,1,164.35,74c-1.82-2.82-3.58-5.69-5.2-8.64a9,9,0,0,1,.3-10,54.26,54.26,0,0,1,7.73-9.75A16.85,16.85,0,0,1,178.72,53.65Z"/><path class="cls-11" d="M92.91,39.7a36.07,36.07,0,0,1,13.74.33A7.38,7.38,0,0,1,112,45.41c.6,2.07,1.21,4.15,1.62,6.26a9,9,0,0,1-2.5,8.59c-1.69,1.7-3.41,3.36-5.11,5A46.56,46.56,0,0,1,92.7,60.62c-4-2.26-5.14-7.72-2.91-12.15a50.8,50.8,0,0,1,3.56-6A1.74,1.74,0,0,0,92.91,39.7Z"/><path class="cls-11" d="M110.27,197.67c-2.07,4.8-6.72,5.79-10.94,7.43A19.66,19.66,0,0,1,88,199.92a7.88,7.88,0,0,1-1.76-9.49c1.69-3.66,4.51-6.56,7.13-9.58a1.78,1.78,0,0,1,1.08-.47,52.82,52.82,0,0,1,10.86,5.45A11.18,11.18,0,0,1,110.27,197.67Z"/><path class="cls-12" d="M64.63,109.48a79.32,79.32,0,0,0-8.13,12.93,8.29,8.29,0,0,0,1.56,10.31c3,3,6,6,9,9,.61.61,1.36,1.15,1.4,2.14-3.75,2.82-8,2.7-11.31-.48s-6.63-6.53-9.87-9.87a8.33,8.33,0,0,1-1.41-10.17c2-3.57,4-7.11,6.28-10.52C54.91,108.55,58.58,107.67,64.63,109.48Z"/><path class="cls-11" d="M212.18,107.14c4,4.1,4.22,9.27.75,14.94a161.84,161.84,0,0,1-16.79,8.34c-4.34-1.83-6.8-7-4.85-11.31,2.53-5.51,6.52-9.75,12.68-11.17C206.63,107.33,209.31,106,212.18,107.14Z"/><path class="cls-12" d="M154.7,160.11a39.16,39.16,0,0,0-8.47,13.76,7.41,7.41,0,0,0,2.9,8.3,128.6,128.6,0,0,0,16.71,8.4,6.87,6.87,0,0,1-8.07,2,136.85,136.85,0,0,1-18.68-9.25,7.89,7.89,0,0,1-3-10.34,70,70,0,0,1,6-10.08,8.22,8.22,0,0,1,7.9-3.58C151.59,159.42,153.14,159.82,154.7,160.11Z"/><path class="cls-2" d="M85.27,92.73A10.17,10.17,0,0,1,95.58,82.1a10.86,10.86,0,0,1,10.83,10.38c.21,5.51-5,10.81-10.45,10.86A10.56,10.56,0,0,1,85.27,92.73Z"/><path class="cls-2" d="M208.52,173.2c-6.13,0-10.3-4.31-10.58-10.31a10.28,10.28,0,0,1,10.54-10.67c6.74.36,10.24,4.08,10.5,10.57C219.22,168.87,214,173.74,208.52,173.2Z"/><path class="cls-12" d="M212.18,107.14c-2.82.53-5.7.87-8.45,1.65-5.68,1.62-9.39,5.64-11.79,10.81-1.38,3-.29,5.76,1.81,8.15.79.9,1.6,1.78,2.39,2.67-2.79,1.48-5.4.85-7.87-.78a18.18,18.18,0,0,1-4.47-4.32c-2.63-3.51-2.07-7.73,1-11.38,3.94-4.66,8.64-7.7,14.84-8.2a11,11,0,0,0,4.17-1C206.83,104.73,209.94,104.4,212.18,107.14Z"/><path class="cls-12" d="M92.91,39.7c2.9.11,2.9.11,1.51,2.48C93.29,44.12,92.14,46.05,91,48c-3.24,5.61-1.29,11.09,4.82,13.33,2.63,1,5.33,1.76,8,2.67.81.28,1.78.35,2.19,1.31a8.52,8.52,0,0,1-9.44,2.19c-3.26-1.07-6.54-2.09-9.76-3.27-5.5-2-7.58-7.53-4.75-12.68,1.54-2.8,3.24-5.52,5-8.2A7.21,7.21,0,0,1,92.91,39.7Z"/><path class="cls-12" d="M126.16,106.18c-.26,2.39-2.3,3.82-3.21,5.88-.71,1.59-1.83,3-2.62,4.56-2.86,5.68-.49,10.93,5.74,12.59,4.7,1.25,9.44,2.35,14.15,3.53a7.37,7.37,0,0,1-7.72,2.58c-5-1.13-10-2.3-14.88-3.67-6-1.65-8.3-7.47-5.31-12.9,1.2-2.17,2.67-4.19,3.78-6.4C118.19,108.16,121.68,106.41,126.16,106.18Z"/><path class="cls-12" d="M167.18,45.61c.58,1-.38,1.41-.87,2A79.92,79.92,0,0,0,160,56c-2,3-1.78,6.07-.1,9.06,1.56,2.8,3.39,5.45,4.91,8.26.93,1.72,2.76,2.42,3.81,3.93a8.23,8.23,0,0,1-11.38-2.6c-2-2.92-3.76-6-5.43-9.06a8.27,8.27,0,0,1,.31-9.1c1.86-2.7,3.82-5.34,5.89-7.88A8.27,8.27,0,0,1,167.18,45.61Z"/><path class="cls-12" d="M94.45,180.38l-5.69,7.41c-4.32,5.59-3,11,3.36,14.13,2.37,1.15,5,1.69,7.21,3.18a10.18,10.18,0,0,1-10.27.55c-1.86-.9-3.88-1.49-5.76-2.36-5.82-2.65-7.32-8.58-3.49-13.69,1.73-2.3,3.56-4.53,5.34-6.78C87.81,180.32,90.8,179.09,94.45,180.38Z"/><path class="cls-2" d="M111.61,173.2c-4.26.51-7.35-3.34-7.45-7.33s3.52-7.12,7.54-7.13c4.37,0,7.28,2.94,7.3,7.41C119,170.27,116,173.19,111.61,173.2Z"/><path class="cls-2" d="M176.33,98.1A7.23,7.23,0,1,1,161.87,98a7.24,7.24,0,1,1,14.46.15Z"/><path class="cls-2" d="M146.46,32c0,4.58-2.71,7.26-7.33,7.24A6.9,6.9,0,0,1,132,31.93a6.91,6.91,0,0,1,7.34-7.12C143.77,24.83,146.46,27.55,146.46,32Z"/><path class="cls-13" d="M182.89,149.78c-.17,1.67-.64,3-2,3.8a3.7,3.7,0,0,1-4.5-.1,70.84,70.84,0,0,1-9.66-9.7c-1.35-1.69-1-3.68.58-5.22a3.67,3.67,0,0,1,5.06-.48,67.3,67.3,0,0,1,9.84,9.84A6.08,6.08,0,0,1,182.89,149.78Z"/><path class="cls-13" d="M68,82a15.71,15.71,0,0,1-2.19-.69c-2.6-1.24-5.19-2.49-7.73-3.85s-3.33-3.61-2.26-5.79,3.39-3,5.92-1.81c2.83,1.31,5.63,2.7,8.34,4.23a3.91,3.91,0,0,1,2,4.91A4.25,4.25,0,0,1,68,82Z"/><path class="cls-14" d="M140.26,81.26c0,2.57-.86,4.06-2.76,4.66s-3.79.28-4.82-1.58c-1.7-3.07-3.26-6.22-4.7-9.42a3.78,3.78,0,0,1,1.52-4.85c1.62-1.15,3.54-1.23,4.83.2C137.32,73.57,138.72,77.77,140.26,81.26Z"/><path class="cls-14" d="M97.67,133.17c3.08,0,5.2,2.85,4.06,5.51a95.09,95.09,0,0,1-4.6,9.27,3.84,3.84,0,0,1-5.4,1.55,3.88,3.88,0,0,1-2-5.07c1.39-3.24,3-6.37,4.73-9.46A3.49,3.49,0,0,1,97.67,133.17Z"/><path class="cls-13" d="M114.83,22.41c-1.44,0-2.89.07-4.33,0a4.11,4.11,0,0,1-4-3.72,3.93,3.93,0,0,1,3.39-4.5,32.33,32.33,0,0,1,10.06,0,3.85,3.85,0,0,1,3.39,4.05,4.09,4.09,0,0,1-3.66,4.1,45.38,45.38,0,0,1-4.81,0Z"/><path class="cls-14" d="M186.79,196.77a4.17,4.17,0,0,1-3.38-2.38,3.78,3.78,0,0,1,.31-4.11,26.36,26.36,0,0,1,5.46-5.4,4.12,4.12,0,0,1,5.73,5.66,23.94,23.94,0,0,1-5.38,5.44A4,4,0,0,1,186.79,196.77Z"/><path class="cls-13" d="M29,93.28A4.38,4.38,0,0,1,32.74,96a3.69,3.69,0,0,1-.89,4.41A55.56,55.56,0,0,1,23.07,107c-1.83,1.1-3.61.43-4.94-1.11s-1.58-3.45-.3-4.85a37.79,37.79,0,0,1,10.06-7.63A3,3,0,0,1,29,93.28Z"/><path class="cls-14" d="M42.45,163.17a9,9,0,0,1-.51,1.76c-1.32,2.74-2.65,5.49-4.09,8.18a4.09,4.09,0,0,1-5.71,1.9,4.14,4.14,0,0,1-1.82-5.57c1.34-2.91,2.8-5.77,4.3-8.61a4,4,0,0,1,4.94-2C41.5,159.4,42.4,160.85,42.45,163.17Z"/><path class="cls-13" d="M108.62,222.3c1.86,0,3.7,0,5.1,1.54a4.14,4.14,0,0,1,.86,4c-.61,2.34-2.93,3.26-7.34,3-2.88-.15-4.61-1.38-5-3.57a4.23,4.23,0,0,1,3.53-4.89A22.69,22.69,0,0,1,108.62,222.3Z"/><path class="cls-2" d="M227.44,75c-1.85,3.12-3.64,6.54-7.74,6.86a24.39,24.39,0,0,1-14.06-3,7.49,7.49,0,0,1-3.72-7.81c.79-6.18,1.77-12.33,2.66-18.49a11.83,11.83,0,0,1,3.81-7c1.4-1.32,2.7-2.74,4.1-4.05,1.06-1,2.17-2,3.8-1.68a1.61,1.61,0,0,1,0,1.39c-2.41,7.12-2.63,14.62-3.77,22-.67,4.28,1.69,7.42,5.89,8.65,2.23.65,4.55.9,6.8,1.49C226.14,73.51,227.38,73.51,227.44,75Z"/><path class="cls-1" d="M227.44,75c-2.53-1.3-5.36-1.41-8.07-1.95-5.84-1.16-8.66-5.36-7.65-11.18s1.77-11.8,2.67-17.7a9.23,9.23,0,0,1,1.9-4.34c2.29,0,3.51,1.35,4.24,3.27,2.85,7.55,5.64,15.14,8.51,22.69C230.35,69.18,229.5,72.15,227.44,75Z"/><path class="cls-2" d="M216.82,21.91c.11,4.31-.42,5.13-4.31,6.67-3.5,1.38-7,2.83-10.51,4.14-3.71,1.36-6.36-.54-6.39-4.48,0-3.21-.06-6.42,0-9.62.06-2.67,1.15-3.88,3.76-4.45a.49.49,0,0,1,.22-.1c5.43-.51,5.43-.51,5.59,5,.13,4.07,1.9,5.28,5.76,3.93,1.14-.39,2.23-.91,3.37-1.28A2.36,2.36,0,0,1,216.82,21.91Z"/><path class="cls-2" d="M241,97c.75,3-.94,5.11-3.87,6.66-1.33.71-2.52,1.69-3.8,2.52-1.87,1.22-3.82,1.69-5.82.33-1.73-1.19-3.1-4.7-2.65-6.59a12.65,12.65,0,0,1,11.39-10A4.05,4.05,0,0,1,240.94,94C241,94.83,241,95.63,241,97Z"/><path class="cls-15" d="M216.82,21.91c-2.49.32-4.59,1.74-7,2.42-2.88.83-5.34-.76-5.58-3.72,0-.47,0-1,0-1.43,0-4.87,0-4.87-4.89-5a45.88,45.88,0,0,1,14.42.11c1.93.33,2.94,1.81,3,3.81C216.84,19.36,216.82,20.64,216.82,21.91Z"/></g></g></svg>